<svg width="50" height="50" viewBox="0 0 50 50" xmlns="http://www.w3.org/2000/svg"><title>影院1</title><g fill="#696969" fill-rule="evenodd"><path d="M40.5 45h-31c-.83 0-1.5-.67-1.5-1.5S8.67 42 9.5 42h31c.83 0 1.5.67 1.5 1.5s-.67 1.5-1.5 1.5M9.4 8C8.077 8 7 9.077 7 10.4v23.217l7.484-11.388c.27-.414.728-.666 1.22-.677.517-.027.96.222 1.25.622.098.133 2.608 3.435 7.884 3.435 5.358 0 8.192-3.738 8.22-3.776.293-.396.75-.633 1.255-.605.492.015.944.272 1.21.686L43 33.53V10.395C43 9.075 41.926 8 40.606 8H9.4zm35.1 32.13c-.5 0-.98-.25-1.26-.687l-9.214-14.31c-1.664 1.47-4.75 3.477-9.188 3.477-4.353 0-7.278-1.805-8.872-3.174l-9.212 14.02c-.364.553-1.05.802-1.684.612-.635-.19-1.07-.774-1.07-1.437V10.4C4 7.422 6.422 5 9.4 5h31.206C43.58 5 46 7.42 46 10.395V38.63c0 .667-.438 1.253-1.077 1.44-.14.042-.282.06-.423.06z"></path></g></svg>
